<svg width="25" height="18" viewBox="0 0 25 18" fill="none" xmlns="http://www.w3.org/2000/svg">
<path fill-rule="evenodd" clip-rule="evenodd" d="M23.0203 2.81024C22.3962 1.73391 21.7201 1.53613 20.3417 1.461C18.9649 1.37054 15.5013 1.33374 12.5023 1.33374C9.49717 1.33374 6.03206 1.37054 4.65676 1.461C3.28145 1.53766 2.60376 1.73391 1.9736 2.81024C1.33118 3.88657 1 5.73718 1 8.99683V9.00909C1 12.2549 1.33118 14.1194 1.9736 15.1819C2.60223 16.2567 3.27991 16.4529 4.65676 16.5434C6.03206 16.6201 9.49563 16.6661 12.5023 16.6661C15.5013 16.6661 18.9649 16.6201 20.3432 16.5434C21.7216 16.4529 22.3978 16.2567 23.0218 15.1819C23.6719 14.1178 24 12.2534 24 9.00909V8.99683C23.9985 5.73718 23.6719 3.88657 23.0203 2.81024V2.81024Z" stroke="#EC8DA9" stroke-miterlimit="10" stroke-linecap="round" stroke-linejoin="round"/>
<path fill-rule="evenodd" clip-rule="evenodd" d="M10.1992 12.8329V5.16675L16.3321 8.99983L10.1992 12.8329Z" stroke="#EC8DA9" stroke-miterlimit="10" stroke-linecap="round" stroke-linejoin="round"/>
</svg>
