<svg width="31" height="21" viewBox="0 0 31 21" fill="none" xmlns="http://www.w3.org/2000/svg">
<path d="M4.2701 14.3296H2.5257C1.80553 14.3296 1.33764 15.0632 1.73654 15.6628C2.98717 17.5427 5.159 19.4472 7.5397 19.4472C9.92041 19.4472 12.0922 17.5427 13.3429 15.6628C13.7418 15.0632 13.2739 14.3296 12.5537 14.3296H10.8093M4.2701 14.3296H7.5397H10.8093M4.2701 14.3296L6.61013 8.42863C6.94396 7.58679 8.13545 7.58679 8.46928 8.42863L10.8093 14.3296" stroke="white" stroke-width="2"/>
<path d="M20.1915 14.3296H18.4471C17.7269 14.3296 17.259 15.0632 17.6579 15.6628C18.9086 17.5427 21.0804 19.4472 23.4611 19.4472C25.8418 19.4472 28.0136 17.5427 29.2643 15.6628C29.6632 15.0632 29.1953 14.3296 28.4751 14.3296H26.7307M20.1915 14.3296H23.4611H26.7307M20.1915 14.3296L22.5315 8.42863C22.8653 7.58679 24.0568 7.58679 24.3907 8.42863L26.7307 14.3296" stroke="white" stroke-width="2"/>
<circle cx="15.7848" cy="3.44747" r="2.41176" stroke="white" stroke-width="2"/>
<path d="M6.68701 4.9312L12.9419 3.79395" stroke="white" stroke-width="2" stroke-linecap="round"/>
<path d="M18.6279 3.79395L24.3142 4.9312" stroke="white" stroke-width="2" stroke-linecap="round"/>
</svg>
